<svg width="400" height="400" viewBox="0 0 400 400" fill="none" xmlns="http://www.w3.org/2000/svg">
<rect width="400" height="400" fill="white"/>
<rect x="20" y="20" width="360" height="360" fill="black"/>
<path d="M214.32 138.36L171.84 220.26V264H146.64V220.26L103.98 138.36H132.42L159.42 195.78L186.24 138.36H214.32ZM249.794 242.76H306.314V264H220.634V244.56L276.794 159.6H220.634V138.36H306.314V157.8L249.794 242.76Z" fill="#C4C4C4"/>
<path d="M197.32 138.36L154.84 220.26V264H129.64V220.26L86.98 138.36H115.42L142.42 195.78L169.24 138.36H197.32ZM232.794 242.76H289.314V264H203.634V244.56L259.794 159.6H203.634V138.36H289.314V157.8L232.794 242.76Z" fill="white"/>
</svg>
